<svg width="66" height="66" viewBox="0 0 66 66" fill="none" xmlns="http://www.w3.org/2000/svg">
<path d="M57.3427 55.5276L51.5213 46.6434C51.4388 46.4784 51.2841 46.3598 51.1036 46.3186C50.9231 46.2773 50.7375 46.3237 50.5931 46.4372C47.3344 49.0205 41.7347 50.9695 37.5633 50.9695C29.5041 50.9695 21.2953 42.9361 21.2953 35.1244C21.2953 27.3126 29.5041 19.2792 37.5633 19.2792C41.9255 19.2792 46.4011 20.6817 49.2371 22.9453C49.3763 23.0587 49.567 23.1 49.7424 23.0691C49.9177 23.033 50.0724 22.9195 50.16 22.7597L56.6156 13.5764C56.76 13.3134 56.693 12.9834 56.4558 12.7978C51.5728 8.93061 45.375 7.04858 37.5066 7.04858C20.7488 7.04858 8.59033 18.8616 8.59033 35.1295C8.59033 51.4026 20.7488 63.2105 37.5066 63.2105C45.1739 63.2105 51.7997 60.8798 57.1931 56.2753C57.4097 56.0897 57.4716 55.7803 57.3427 55.5276Z" fill="white"/>
<g clip-path="url(#clip0_6_25)">
<path d="M37.8773 50.0242C39.7569 49.17 40.9673 47.6921 41.3775 45.7505C42.1265 42.2069 40.9183 40.4515 39.8522 38.9028C39.0855 37.789 38.4234 36.8274 38.4234 35.1516C38.4234 35.1508 38.4234 35.1502 38.4234 35.1493C38.4234 33.4741 39.0856 32.5121 39.8523 31.3984C40.9184 29.8499 42.1271 28.0947 41.3776 24.552C40.9672 22.6092 39.7563 21.1307 37.8758 20.2763C35.3443 19.1261 31.9693 19.3242 30.1696 20.1799C28.007 21.2066 26.0111 22.9798 24.3979 25.3074C22.3354 28.2821 21.1527 31.8676 21.1527 35.146C21.1527 35.1475 21.1527 35.1492 21.1527 35.1505C21.1529 38.4305 22.3355 42.018 24.3973 44.9929C26.0113 47.3217 28.0066 49.0948 30.1672 50.1204C31.9689 50.9768 35.3454 51.1748 37.8773 50.0242ZM31.1584 48.298C29.3669 47.4477 27.6179 45.8794 26.2335 43.8818C24.3949 41.2288 23.3404 38.0462 23.3404 35.1501L23.3404 35.1497C23.3404 35.1483 23.3404 35.1472 23.3404 35.1457C23.3404 32.2516 24.395 29.0709 26.234 26.4185C27.6178 24.4219 29.3674 22.8535 31.1611 22.002C32.2616 21.4787 34.9453 21.2178 36.9191 22.1146C38.1769 22.6861 38.9549 23.6393 39.2313 24.9479C39.3636 25.573 39.422 26.118 39.422 26.6043C39.422 28.2448 38.7563 29.212 38.0124 30.2924C37.1795 31.5021 36.2356 32.8731 36.2356 35.1489C36.2357 35.1496 36.2356 35.1507 36.2356 35.1518C36.2356 37.4278 37.1795 38.7989 38.0123 40.0086C38.9767 41.4094 39.8095 42.6193 39.2313 45.3543C38.9549 46.6618 38.1775 47.6143 36.9204 48.1857C34.9462 49.0831 32.2605 48.8219 31.1584 48.298Z" fill="white"/>
<path d="M35.4748 37.9932C34.4178 35.7539 34.9611 34.3573 35.6028 33.58L33.8709 32.3311C33.087 33.2803 32.6929 34.4075 32.6929 35.6419C32.6929 36.643 32.9523 37.7147 33.4732 38.8181L35.4748 37.9932Z" fill="white"/>
</g>
<defs>
<clipPath id="clip0_6_25">
<rect width="31.35" height="33.55" fill="white" transform="translate(48.1566 19.4754) rotate(90)"/>
</clipPath>
</defs>
</svg>
